<svg width="345" height="522" viewBox="0 0 345 522" fill="none" xmlns="http://www.w3.org/2000/svg">
<ellipse cx="170" cy="495" rx="163" ry="27" fill="url(#paint0_radial_44_436)"/>
<path d="M7 177C7 143.863 33.8629 117 67 117H285C318.137 117 345 143.863 345 177V277C345 285.837 337.837 293 329 293H23C14.1634 293 7 285.837 7 277V177Z" fill="#B82929"/>
<path d="M261.513 360.488C261.252 393.624 234.178 420.274 201.042 420.013L148.998 419.602C115.862 419.341 89.2118 392.267 89.4732 359.131L90.0027 292L262.043 293.357L261.513 360.488Z" fill="#8D1414"/>
<path d="M45 225C45 191.863 71.8629 165 105 165H247C280.137 165 307 191.863 307 225V293H45V225Z" fill="white"/>
<rect x="129" y="204" width="19" height="50" rx="9.5" fill="#313131"/>
<rect x="204" y="203" width="19" height="50" rx="9.5" fill="#313131"/>
<path d="M97 425.5C97 408.655 110.655 395 127.5 395C144.345 395 158 408.655 158 425.5V434.474C158 440.287 153.287 445 147.474 445H107.526C101.713 445 97 440.287 97 434.474V425.5Z" fill="#B82929"/>
<path d="M194 425.5C194 408.655 207.655 395 224.5 395C241.345 395 255 408.655 255 425.5V434.474C255 440.287 250.287 445 244.474 445H204.526C198.713 445 194 440.287 194 434.474V425.5Z" fill="#B82929"/>
<rect x="110" y="317" width="132" height="54" rx="16" fill="#313131"/>
<circle cx="143.511" cy="343.511" r="10.5111" transform="rotate(-90 143.511 343.511)" fill="#B82929"/>
<circle cx="208.489" cy="343.511" r="10.5111" transform="rotate(-90 208.489 343.511)" fill="#6AB500"/>
<circle cx="176" cy="343.511" r="10.5111" transform="rotate(-90 176 343.511)" fill="#FF8C00"/>
<rect x="291.503" y="313.599" width="5.14286" height="41.1429" transform="rotate(15 291.503 313.599)" fill="#5A5A5A"/>
<rect x="281.455" y="336.197" width="12.8571" height="37.2857" rx="6.42857" transform="rotate(15 281.455 336.197)" fill="#E1C300"/>
<rect x="271.65" y="362.853" width="18" height="37.2857" rx="3" transform="rotate(15 271.65 362.853)" fill="#F3D200"/>
<path d="M290.217 315.917L288.841 323.534L293.809 324.865L297.047 317.747L298.877 310.916L300.375 305.328L293.544 303.497L292.047 309.086L290.217 315.917Z" fill="#707070"/>
<path d="M8.16047 343.984L0 324.642L43.2362 306.4L67.7078 308.809L71.308 317.342L8.16047 343.984Z" fill="#313131"/>
<path d="M32.0542 333.903L44.5699 328.623L72.6737 395.237C73.8545 398.035 72.5429 401.261 69.7442 402.442L67.3634 403.446C64.5647 404.627 61.3388 403.316 60.158 400.517L32.0542 333.903Z" fill="#AD5100"/>
<path d="M73.0038 120.827C65.3098 137.718 139.672 164.16 183.87 177.543C205.714 184.158 268.457 166.949 291.158 149.834C298.487 144.308 295.352 125.029 276.194 109.509C274.053 101.725 272.609 97.6023 267.859 92.3913L266.254 110.99L250.743 120.25L251.081 127.241C251.516 136.231 179.143 152.242 180.538 139.66C165.813 142.402 157.541 143.622 142.582 141.494C131.939 119.924 126.401 118.444 117.49 140.203C94.2153 135.919 86.202 131.397 78.4974 120.562L77.6771 103.582C73.2157 108.249 72.3115 112.116 73.0038 120.827Z" fill="#EFD100"/>
<path d="M185.083 109.405L180.538 139.66C179.143 152.242 251.516 136.231 251.081 127.241L250.743 120.25L250.72 119.809C250.097 107.95 249.359 93.9006 240.439 94.7171C235.492 95.1698 230.635 95.5439 225.98 95.9165C220.491 96.3557 215.281 96.7927 210.531 97.3539C206.525 97.8273 202.846 98.3891 199.603 99.1151C191.192 100.999 185.719 103.987 185.083 109.405Z" fill="#D8BD00"/>
<path d="M100.011 37.4267C86.5577 49.0894 77.3005 75.0664 77.6771 103.582L78.4974 120.562C86.202 131.397 94.2153 135.919 117.49 140.203C126.401 118.444 131.939 119.924 142.582 141.494C157.541 143.622 165.813 142.402 180.538 139.66L185.083 109.405C185.719 103.987 191.192 100.999 199.603 99.1151C162.355 56.2121 141.06 36.8568 100.011 37.4267Z" fill="#EFD100"/>
<path d="M134.005 15.7611C108.153 20.4684 106.302 24.8557 100.011 37.4267C141.06 36.8568 162.355 56.2121 199.603 99.1151C202.846 98.3891 206.525 97.8273 210.531 97.3539C185.456 48.5572 170.573 24.0983 134.005 15.7611Z" fill="#D8BD00"/>
<path d="M175.763 9.73905C161.279 5.19494 152.83 4.73044 141.786 11.0356C141.825 13.7066 137.156 16.2296 134.005 15.7611C170.573 24.0983 185.456 48.5572 210.531 97.3539C214.922 59.1772 214.148 38.4864 175.763 9.73905Z" fill="#EFD100"/>
<path d="M206.517 14.2603C196.69 6.00751 190.345 4.25061 181.16 7.46808C179.662 7.99782 177.774 8.61492 175.763 9.73905C214.148 38.4864 214.922 59.1772 210.531 97.3539C215.281 96.7927 220.491 96.3557 225.98 95.9165C233.78 61.1924 237.728 41.8021 206.517 14.2603Z" fill="#D8BD00"/>
<path d="M267.859 92.3913C255.472 53.0737 245.676 33.2002 206.517 14.2603C237.728 41.8021 233.78 61.1924 225.98 95.9165C230.635 95.5439 235.492 95.1698 240.439 94.7171C249.359 93.9006 250.097 107.95 250.72 119.809L250.743 120.25L266.254 110.99L267.859 92.3913Z" fill="#EFD100"/>
<path d="M267.859 92.3913C272.609 97.6023 274.053 101.725 276.194 109.509C295.352 125.029 298.487 144.308 291.158 149.834C268.457 166.949 205.714 184.158 183.87 177.543C139.672 164.16 65.3098 137.718 73.0038 120.827C72.3115 112.116 73.2157 108.249 77.6771 103.582M267.859 92.3913C255.472 53.0737 245.676 33.2002 206.517 14.2603M267.859 92.3913L266.254 110.99L250.743 120.25M206.517 14.2603C196.69 6.00751 190.345 4.25061 181.16 7.46808C179.662 7.99782 177.774 8.61492 175.763 9.73905M206.517 14.2603C237.728 41.8021 233.78 61.1924 225.98 95.9165M175.763 9.73905C161.279 5.19494 152.83 4.73044 141.786 11.0356C141.825 13.7066 137.156 16.2296 134.005 15.7611M175.763 9.73905C214.148 38.4864 214.922 59.1772 210.531 97.3539M134.005 15.7611C108.153 20.4684 106.302 24.8557 100.011 37.4267M134.005 15.7611C170.573 24.0983 185.456 48.5572 210.531 97.3539M100.011 37.4267C86.5577 49.0894 77.3005 75.0664 77.6771 103.582M100.011 37.4267C141.06 36.8568 162.355 56.2121 199.603 99.1151M77.6771 103.582L78.4974 120.562C86.202 131.397 94.2153 135.919 117.49 140.203C126.401 118.444 131.939 119.924 142.582 141.494C157.541 143.622 165.813 142.402 180.538 139.66M180.538 139.66L185.083 109.405C185.719 103.987 191.192 100.999 199.603 99.1151M180.538 139.66C179.143 152.242 251.516 136.231 251.081 127.241L250.743 120.25M250.743 120.25L250.72 119.809M250.743 120.25C250.736 120.103 250.728 119.956 250.72 119.809M199.603 99.1151C202.846 98.3891 206.525 97.8273 210.531 97.3539M210.531 97.3539C215.281 96.7927 220.491 96.3557 225.98 95.9165M225.98 95.9165C230.635 95.5439 235.492 95.1698 240.439 94.7171C249.359 93.9006 250.097 107.95 250.72 119.809" stroke="black"/>
<path d="M239.322 121.646L201.037 131.365L193.107 118.418L207.307 121.52L215.747 108.028L229.115 115.984L240.601 106.362L239.322 121.646Z" fill="#313131"/>
<defs>
<radialGradient id="paint0_radial_44_436" cx="0" cy="0" r="1" gradientUnits="userSpaceOnUse" gradientTransform="translate(170 495) scale(163 27)">
<stop stop-opacity="0.14"/>
<stop offset="1" stop-color="#737373" stop-opacity="0"/>
</radialGradient>
</defs>
</svg>
