<svg width="409" height="568" viewBox="0 0 409 568" fill="none" xmlns="http://www.w3.org/2000/svg">
<path d="M44.284 510H4.784L0.283997 495.5L13.284 502L24.784 491L35.784 502L49.284 495.5L44.284 510Z" fill="#313131"/>
<path d="M48.828 515.52V527.454H32.448V567H16.536V527.454H0V515.52H48.828Z" fill="#313131"/>
<path d="M87.1961 515.52C93.5921 515.52 98.5321 517.002 102.016 519.966C105.552 522.878 107.32 526.778 107.32 531.666C107.32 537.126 105.604 541.26 102.172 544.068C98.7401 546.876 93.8001 548.28 87.3521 548.28L85.7921 549.138H76.4321V567H60.8321V515.52H87.1961ZM84.6221 538.296C86.8581 538.296 88.5221 537.88 89.6141 537.048C90.7581 536.164 91.3301 534.734 91.3301 532.758C91.3301 530.782 90.7581 529.352 89.6141 528.468C88.5221 527.584 86.8581 527.142 84.6221 527.142H76.4321V538.296H84.6221ZM94.0601 541.65L110.284 567H92.8901L80.3321 544.458L94.0601 541.65Z" fill="#313131"/>
<path d="M169.583 567H153.203L150.317 556.314H134.639L131.675 567H115.763L133.079 515.52H152.189L169.583 567ZM137.291 546.018H147.743L142.517 526.83L137.291 546.018Z" fill="#313131"/>
<path d="M220.953 527.454H195.447V536.424H215.883V548.358H195.447V567H179.535V515.52H220.953V527.454Z" fill="#313131"/>
<path d="M274.249 527.454H248.743V536.424H269.179V548.358H248.743V567H232.831V515.52H274.249V527.454Z" fill="#313131"/>
<path d="M302.039 515.52V567H286.127V515.52H302.039Z" fill="#313131"/>
<circle cx="333.511" cy="556.511" r="10.5111" transform="rotate(-90 333.511 556.511)" fill="#B82929"/>
<circle cx="398.489" cy="556.511" r="10.5111" transform="rotate(-90 398.489 556.511)" fill="#6AB500"/>
<circle cx="366" cy="556.511" r="10.5111" transform="rotate(-90 366 556.511)" fill="#FF8C00"/>
<ellipse cx="199" cy="468" rx="163" ry="27" fill="url(#paint0_radial_18_56)"/>
<path d="M36 150C36 116.863 62.8629 90 96 90H314C347.137 90 374 116.863 374 150V250C374 258.837 366.837 266 358 266H52C43.1634 266 36 258.837 36 250V150Z" fill="#B82929"/>
<path d="M290.513 333.488C290.252 366.624 263.178 393.274 230.042 393.013L177.998 392.602C144.862 392.341 118.212 365.267 118.473 332.131L119.003 265L291.043 266.357L290.513 333.488Z" fill="#8D1414"/>
<path d="M74 198C74 164.863 100.863 138 134 138H276C309.137 138 336 164.863 336 198V266H74V198Z" fill="white"/>
<rect x="198" y="31" width="14" height="59" fill="#8D1414"/>
<circle cx="205" cy="18" r="18" fill="#B82929"/>
<rect x="158" y="177" width="19" height="50" rx="9.5" fill="#313131"/>
<rect x="233" y="176" width="19" height="50" rx="9.5" fill="#313131"/>
<path d="M126 398.5C126 381.655 139.655 368 156.5 368V368C173.345 368 187 381.655 187 398.5V407.474C187 413.287 182.287 418 176.474 418H136.526C130.713 418 126 413.287 126 407.474V398.5Z" fill="#B82929"/>
<path d="M223 398.5C223 381.655 236.655 368 253.5 368V368C270.345 368 284 381.655 284 398.5V407.474C284 413.287 279.287 418 273.474 418H233.526C227.713 418 223 413.287 223 407.474V398.5Z" fill="#B82929"/>
<rect x="139" y="290" width="132" height="54" rx="16" fill="#313131"/>
<circle cx="172.511" cy="316.511" r="10.5111" transform="rotate(-90 172.511 316.511)" fill="#B82929"/>
<circle cx="237.489" cy="316.511" r="10.5111" transform="rotate(-90 237.489 316.511)" fill="#6AB500"/>
<circle cx="205" cy="316.511" r="10.5111" transform="rotate(-90 205 316.511)" fill="#FF8C00"/>
<defs>
<radialGradient id="paint0_radial_18_56" cx="0" cy="0" r="1" gradientUnits="userSpaceOnUse" gradientTransform="translate(199 468) scale(163 27)">
<stop stop-opacity="0.14"/>
<stop offset="1" stop-color="#737373" stop-opacity="0"/>
</radialGradient>
</defs>
</svg>
