<svg width="409" height="558" viewBox="0 0 409 558" fill="none" xmlns="http://www.w3.org/2000/svg">
<path d="M44.284 500H4.784L0.283997 485.5L13.284 492L24.784 481L35.784 492L49.284 485.5L44.284 500Z" fill="white"/>
<path d="M48.828 505.52V517.454H32.448V557H16.536V517.454H0V505.52H48.828Z" fill="white"/>
<path d="M87.1961 505.52C93.5921 505.52 98.5321 507.002 102.016 509.966C105.552 512.878 107.32 516.778 107.32 521.666C107.32 527.126 105.604 531.26 102.172 534.068C98.7401 536.876 93.8001 538.28 87.3521 538.28L85.7921 539.138H76.4321V557H60.8321V505.52H87.1961ZM84.6221 528.296C86.8581 528.296 88.5221 527.88 89.6141 527.048C90.7581 526.164 91.3301 524.734 91.3301 522.758C91.3301 520.782 90.7581 519.352 89.6141 518.468C88.5221 517.584 86.8581 517.142 84.6221 517.142H76.4321V528.296H84.6221ZM94.0601 531.65L110.284 557H92.8901L80.3321 534.458L94.0601 531.65Z" fill="white"/>
<path d="M169.583 557H153.203L150.317 546.314H134.639L131.675 557H115.763L133.079 505.52H152.189L169.583 557ZM137.291 536.018H147.743L142.517 516.83L137.291 536.018Z" fill="white"/>
<path d="M220.953 517.454H195.447V526.424H215.883V538.358H195.447V557H179.535V505.52H220.953V517.454Z" fill="white"/>
<path d="M274.249 517.454H248.743V526.424H269.179V538.358H248.743V557H232.831V505.52H274.249V517.454Z" fill="white"/>
<path d="M302.039 505.52V557H286.127V505.52H302.039Z" fill="white"/>
<circle cx="333.511" cy="546.511" r="10.5111" transform="rotate(-90 333.511 546.511)" fill="#B82929"/>
<circle cx="398.489" cy="546.511" r="10.5111" transform="rotate(-90 398.489 546.511)" fill="#6AB500"/>
<circle cx="366" cy="546.511" r="10.5111" transform="rotate(-90 366 546.511)" fill="#FF8C00"/>
<ellipse cx="199" cy="468" rx="163" ry="27" fill="url(#paint0_radial_18_57)"/>
<path d="M36 150C36 116.863 62.8629 90 96 90H314C347.137 90 374 116.863 374 150V250C374 258.837 366.837 266 358 266H52C43.1634 266 36 258.837 36 250V150Z" fill="#B82929"/>
<path d="M290.513 333.488C290.252 366.624 263.178 393.274 230.042 393.013L177.998 392.602C144.862 392.341 118.212 365.267 118.473 332.131L119.003 265L291.043 266.357L290.513 333.488Z" fill="#8D1414"/>
<path d="M74 198C74 164.863 100.863 138 134 138H276C309.137 138 336 164.863 336 198V266H74V198Z" fill="white"/>
<rect x="198" y="31" width="14" height="59" fill="#8D1414"/>
<circle cx="205" cy="18" r="18" fill="#B82929"/>
<rect x="158" y="177" width="19" height="50" rx="9.5" fill="#313131"/>
<rect x="233" y="176" width="19" height="50" rx="9.5" fill="#313131"/>
<path d="M126 398.5C126 381.655 139.655 368 156.5 368V368C173.345 368 187 381.655 187 398.5V407.474C187 413.287 182.287 418 176.474 418H136.526C130.713 418 126 413.287 126 407.474V398.5Z" fill="#B82929"/>
<path d="M223 398.5C223 381.655 236.655 368 253.5 368V368C270.345 368 284 381.655 284 398.5V407.474C284 413.287 279.287 418 273.474 418H233.526C227.713 418 223 413.287 223 407.474V398.5Z" fill="#B82929"/>
<rect x="139" y="290" width="132" height="54" rx="16" fill="#313131"/>
<circle cx="172.511" cy="316.511" r="10.5111" transform="rotate(-90 172.511 316.511)" fill="#B82929"/>
<circle cx="237.489" cy="316.511" r="10.5111" transform="rotate(-90 237.489 316.511)" fill="#6AB500"/>
<circle cx="205" cy="316.511" r="10.5111" transform="rotate(-90 205 316.511)" fill="#FF8C00"/>
<defs>
<radialGradient id="paint0_radial_18_57" cx="0" cy="0" r="1" gradientUnits="userSpaceOnUse" gradientTransform="translate(199 468) scale(163 27)">
<stop stop-opacity="0.14"/>
<stop offset="1" stop-color="#737373" stop-opacity="0"/>
</radialGradient>
</defs>
</svg>
